<svg viewBox="0 0 820 760" xmlns="http://www.w3.org/2000/svg">
  <g fill="none" stroke="#888780" stroke-width="1.4">
    <line x1="80" y1="660" x2="80" y2="80"/>
    <line x1="80" y1="660" x2="760" y2="660"/>
    <path d="M82 100 L82 90 L72 90" stroke-width="1.2"/>
    <path d="M740 658 L750 658 L750 668" stroke-width="1.2"/>
  </g>
  <g stroke="#5f5e5a" stroke-width="0.6" opacity="0.5">
    <line x1="80" y1="560" x2="760" y2="560"/>
    <line x1="80" y1="460" x2="760" y2="460"/>
    <line x1="80" y1="360" x2="760" y2="360"/>
    <line x1="80" y1="260" x2="760" y2="260"/>
    <line x1="80" y1="160" x2="760" y2="160"/>
    <line x1="220" y1="660" x2="220" y2="80"/>
    <line x1="360" y1="660" x2="360" y2="80"/>
    <line x1="500" y1="660" x2="500" y2="80"/>
    <line x1="640" y1="660" x2="640" y2="80"/>
  </g>
  <path d="M80 600 C 160 420, 260 220, 360 165 C 460 130, 560 118, 760 112" fill="none" stroke="#e8392f" stroke-width="2"/>
  <path d="M80 600 C 180 480, 280 330, 380 260 C 480 200, 600 168, 760 150" fill="none" stroke="#f2f2f0" stroke-width="1.6" stroke-dasharray="2 6"/>
  <g fill="#0a0a0a" stroke="#e8392f" stroke-width="1.4">
    <circle cx="220" cy="330" r="5"/>
    <circle cx="360" cy="200" r="5"/>
    <circle cx="500" cy="150" r="5"/>
    <circle cx="640" cy="124" r="5"/>
  </g>
  <g fill="#0a0a0a" stroke="#f2f2f0" stroke-width="1.4">
    <circle cx="220" cy="400" r="4"/>
    <circle cx="360" cy="290" r="4"/>
    <circle cx="500" cy="220" r="4"/>
    <circle cx="640" cy="172" r="4"/>
  </g>
  <g stroke="#888780" stroke-width="1" opacity="0.7">
    <line x1="360" y1="200" x2="360" y2="290"/>
  </g>
  <text x="372" y="250" font-family="JetBrains Mono, monospace" font-size="13" fill="#8a8a86">Δ Isp</text>
  <g font-family="JetBrains Mono, monospace" font-size="12" fill="#55554f">
    <text x="60" y="664" text-anchor="end">0</text>
    <text x="60" y="564" text-anchor="end">c*</text>
    <text x="60" y="464" text-anchor="end">Cf</text>
    <text x="60" y="364" text-anchor="end">Isp</text>
    <text x="60" y="264" text-anchor="end">η</text>
  </g>
  <text x="760" y="690" text-anchor="end" font-family="JetBrains Mono, monospace" font-size="13" fill="#8a8a86">t / cycle</text>
  <g font-family="JetBrains Mono, monospace" font-size="11" fill="#55554f" opacity="0.85">
    <text x="650" y="118">model</text>
    <text x="650" y="186">hotfire data</text>
  </g>
</svg>
